<?xml version="1.0" encoding="UTF-8"?>
<svg version="1.1" xmlns="http://www.w3.org/2000/svg" width="512" height="512">
<path d="M0 0 C4.87112704 4.54313561 7.76001357 10.27871816 8.21411133 16.9387207 C8.36368527 21.48337418 8.25040387 26.01862074 8.125 30.5625 C8.09987029 32.15491266 8.07706541 33.74736379 8.05664062 35.33984375 C8.00204877 39.20669413 7.91604351 43.0716634 7.8125 46.9375 C8.69091553 46.62449951 9.56933105 46.31149902 10.47436523 45.98901367 C36.20847575 36.84164064 62.0695995 28.06024847 87.95901489 19.36392212 C91.65331736 18.1225873 95.34561474 16.87553715 99.03634644 15.62362671 C103.45981128 14.12359635 107.88716865 12.63565593 112.31764984 11.1564827 C113.97169748 10.60212871 115.62438131 10.04368655 117.27558136 9.48090744 C119.5638027 8.70190687 121.85661495 7.93822745 124.15112305 7.17797852 C124.8122985 6.94904498 125.47347395 6.72011145 126.15468502 6.48424053 C130.92313633 4.92979008 134.85998497 4.63841541 139.8125 4.9375 C142.11328125 6.23828125 142.11328125 6.23828125 144.125 8.25 C144.95386719 9.05824219 145.78273438 9.86648437 146.63671875 10.69921875 C147.69580598 11.77816165 148.75432518 12.85766223 149.8125 13.9375 C151.3384724 15.46621387 152.86594803 16.99342798 154.39453125 18.51953125 C156.8911945 21.01230675 159.38390161 23.50812396 161.8605957 26.02075195 C165.3826424 29.58350335 168.9029445 33.07831092 172.7109375 36.3359375 C178.54729787 41.34745271 183.8521538 46.92061588 189.24902344 52.39453125 C194.91903854 58.13808239 200.64998138 63.71956117 206.8125 68.9375 C214.48054939 75.58572464 220.26393516 83.68732999 221.8125 93.9375 C221.96926119 97.09871551 221.97994652 100.25720108 221.98950195 103.421875 C221.99607315 104.37042358 222.00264435 105.31897217 222.00941467 106.29626465 C222.02908331 109.42667729 222.04079269 112.55704223 222.05078125 115.6875 C222.05485678 116.75786499 222.0589323 117.82822998 222.06313133 118.93103027 C222.08395934 124.59073695 222.09827816 130.25041958 222.10766602 135.91015625 C222.11875528 141.75796278 222.15319363 147.6053914 222.19283772 153.45306396 C222.21895199 157.95003985 222.22735298 162.44692468 222.23094749 166.94396973 C222.23582274 169.10016447 222.24746328 171.25635489 222.26598549 173.41247559 C222.29027788 176.42633365 222.28943049 179.43919945 222.2824707 182.453125 C222.30168579 183.78893616 222.30168579 183.78893616 222.32128906 185.1517334 C222.28685097 189.23955187 222.13679119 191.40397196 219.97062683 194.96777344 C217.8125 196.9375 217.8125 196.9375 214.8125 197.9375 C214.4825 204.2075 214.1525 210.4775 213.8125 216.9375 C215.76470459 216.91655273 217.71690918 216.89560547 219.72827148 216.87402344 C226.2061898 216.8093066 232.68403115 216.76346343 239.16218472 216.73025131 C243.08674246 216.70944989 247.01094777 216.68127049 250.93530273 216.63574219 C254.7284341 216.59201582 258.52122824 216.56830701 262.31459236 216.55799103 C263.7557817 216.55064732 265.19695432 216.53630756 266.63799858 216.51457977 C274.78981067 216.39664922 281.65681114 216.641323 288.8125 220.9375 C289.72 221.47375 290.6275 222.01 291.5625 222.5625 C298.62684859 230.0193124 299.53079748 238.1190691 299.38012695 248.00634766 C299.38085709 249.27577209 299.38158722 250.54519653 299.38233948 251.85308838 C299.38376277 255.30316245 299.35455269 258.75235142 299.31946969 262.20222139 C299.28802227 265.81896144 299.28526109 269.43572611 299.27934265 273.05258179 C299.26385775 279.88772424 299.2229029 286.72246255 299.1725952 293.55742776 C299.11653385 301.34463678 299.08917325 309.13186601 299.06411803 316.91922688 C299.0119814 332.92555125 298.92414478 348.93147332 298.8125 364.9375 C300.21205933 364.91792236 300.21205933 364.91792236 301.63989258 364.89794922 C302.87892334 364.88779785 304.1179541 364.87764648 305.39453125 364.8671875 C307.22721558 364.84760986 307.22721558 364.84760986 309.09692383 364.82763672 C322.48689204 365.22355535 334.05744637 370.54957377 343.74609375 379.68359375 C354.6418354 391.56798493 357.44704268 404.8075755 357.34375 420.51953125 C357.34645266 421.98777014 357.35034148 423.45600727 357.35534668 424.92424011 C357.36119623 427.97758289 357.35282168 431.03045301 357.33398438 434.08374023 C357.31109471 437.98193208 357.32440856 441.87902804 357.34827423 445.77718067 C357.36276996 448.79967933 357.35811088 451.82192044 357.34776306 454.84442711 C357.34511142 456.28163473 357.34831006 457.7188664 357.35768127 459.15604591 C357.42838411 473.02991284 357.42838411 473.02991284 352.8125 478.9375 C347.23133728 484.23244925 342.17527887 485.23535497 334.66079998 485.19476891 C333.84025467 485.19827498 333.01970935 485.20178105 332.17429903 485.20539337 C329.41298192 485.21472895 326.65187471 485.20977849 323.89054871 485.20492554 C321.89552984 485.20866071 319.90051244 485.21326169 317.90549737 485.21865618 C312.4138606 485.23091803 306.92228459 485.23062197 301.43063724 485.22826743 C295.51162514 485.22786007 289.59263274 485.23889068 283.67362976 485.24838257 C272.07370474 485.26501091 260.47379849 485.27051883 248.87386271 485.27160732 C239.44708244 485.27252612 230.02030877 485.27664128 220.59353065 485.28300858 C217.88084375 485.28480364 215.16815683 485.28658327 212.45546991 485.28835833 C211.78110296 485.28880043 211.10673602 485.28924252 210.41193371 485.28969802 C191.44097283 485.3020079 172.47001424 485.30989899 153.49904919 485.30901146 C152.42599038 485.30896472 152.42599038 485.30896472 151.33125362 485.30891704 C147.7053816 485.30875083 144.07950958 485.30855274 140.45363756 485.30834763 C139.73351604 485.30830774 139.01339452 485.30826785 138.27145114 485.30822675 C136.81518963 485.30814587 135.35892812 485.30806228 133.90266661 485.30797596 C111.24457434 485.3067504 88.58654193 485.32176404 65.9284668 485.34912109 C40.47690685 485.37983824 15.02538624 485.39705381 -10.42619342 485.39519465 C-13.1398234 485.39504539 -15.85345337 485.39494797 -18.56708336 485.39488602 C-19.23525631 485.39486271 -19.90342925 485.3948394 -20.59184986 485.39481538 C-30.68113999 485.39475764 -40.77038306 485.40539905 -50.85965919 485.42155075 C-62.33421409 485.43973444 -73.80867088 485.444133 -85.28323392 485.4305319 C-91.139374 485.42398813 -96.99532573 485.42393598 -102.85144806 485.4412384 C-108.21122443 485.45691168 -113.5706622 485.45416426 -118.93043002 485.43667014 C-120.87051922 485.43358757 -122.81063334 485.43727967 -124.75069318 485.44839029 C-127.38696493 485.46248943 -130.0220454 485.45194265 -132.65827656 485.43527794 C-133.78936333 485.45018248 -133.78936333 485.45018248 -134.94330034 485.46538812 C-140.98351659 485.38460812 -146.29365057 483.67387396 -150.75550108 479.4548253 C-154.39268718 475.2590435 -155.30827279 472.08297363 -155.36450195 466.66259766 C-155.37733719 465.58362213 -155.39017242 464.50464661 -155.40339661 463.39297485 C-155.41078354 462.22430878 -155.41817047 461.0556427 -155.42578125 459.8515625 C-155.433853 458.64366058 -155.44192474 457.43575867 -155.45024109 456.19125366 C-155.46408745 453.62735429 -155.47480712 451.06343644 -155.48266602 448.49951172 C-155.49977947 444.61258884 -155.54365062 440.72653868 -155.58789062 436.83984375 C-155.59802656 434.34375623 -155.60653984 431.8476615 -155.61328125 429.3515625 C-155.63954338 427.62892685 -155.63954338 427.62892685 -155.66633606 425.87149048 C-155.62007926 408.31317519 -148.38843076 394.20153902 -136.1875 381.9375 C-135.58421875 381.29941406 -134.9809375 380.66132813 -134.359375 380.00390625 C-124.49334076 370.37379892 -108.82164934 364.9375 -95.1875 364.9375 C-95.18901888 364.3763333 -95.19053776 363.81516661 -95.19210267 363.23699486 C-95.28166199 329.95984671 -95.35026996 296.68272883 -95.39176132 263.40548713 C-95.396764 259.40769434 -95.4019413 255.4099018 -95.40722656 251.41210938 C-95.4082758 250.61623834 -95.40932505 249.8203673 -95.41040608 249.00037895 C-95.42779985 236.12254263 -95.45933186 223.24477791 -95.49611118 210.36698402 C-95.53354925 197.14805514 -95.5557419 183.9291637 -95.56385398 170.71018398 C-95.56933582 162.55676173 -95.58663456 154.40354189 -95.61916587 146.25018196 C-95.64034917 140.65515878 -95.64669144 135.06023987 -95.64150551 129.46517952 C-95.6389496 126.23955857 -95.6450042 123.01436393 -95.6643219 119.78878975 C-95.68427802 116.28437933 -95.6794177 112.7808288 -95.66851807 109.27639771 C-95.68016943 108.26664292 -95.6918208 107.25688814 -95.70382524 106.21653473 C-95.63443937 97.94011828 -93.66338527 89.89289868 -87.9375 83.625 C-87.41671875 83.03074219 -86.8959375 82.43648438 -86.359375 81.82421875 C-79.18100455 75.58833219 -70.93826469 72.81835398 -62.0769043 69.8605957 C-59.85906673 69.11967713 -57.6471368 68.36285666 -55.43554688 67.60351562 C-54.02375254 67.12407132 -52.61165362 66.64552277 -51.19921875 66.16796875 C-50.5398381 65.94304245 -49.88045746 65.71811615 -49.20109558 65.4863739 C-46.39216097 64.55363704 -44.17088637 63.9375 -41.1875 63.9375 C-41.19749275 63.06545677 -41.19749275 63.06545677 -41.20768738 62.17579651 C-41.27436918 56.09194503 -41.31943617 50.0081984 -41.35229492 43.92407227 C-41.36732508 41.65742776 -41.38775482 39.39081206 -41.41381836 37.12426758 C-41.45045588 33.85490787 -41.4672846 30.58593473 -41.48046875 27.31640625 C-41.49595261 26.31291641 -41.51143646 25.30942657 -41.52738953 24.27552795 C-41.52965409 14.67816869 -39.60253723 7.63489732 -32.95703125 0.59765625 C-23.58086492 -8.19896779 -10.11628339 -6.54583043 0 0 Z " fill="#020202" transform="translate(155.1875,16.0625)"/>
<path d="M0 0 C0 13.53 0 27.06 0 41 C-4.785 42.588125 -9.57 44.17625 -14.5 45.8125 C-30.52234713 51.14297684 -46.51365547 56.56264005 -62.5 62 C-90.30064226 71.45460378 -118.15250464 80.75176861 -146.01855469 90.01147461 C-147.00190796 90.34170624 -147.98526123 90.67193787 -148.99841309 91.01217651 C-151.08831741 91.69996488 -153.18694311 92.36157417 -155.29162598 93.00271606 C-156.35715698 93.33383392 -157.42268799 93.66495178 -158.52050781 94.00610352 C-159.4766095 94.29397232 -160.43271118 94.58184113 -161.41778564 94.87843323 C-164.36439413 96.15827205 -165.97655639 97.51790062 -168 100 C-168.45319325 103.17235276 -168.52990283 105.06487736 -166.9375 107.875 C-163.19942368 110.04549593 -159.35629936 109.3483368 -155.33428955 108.31536865 C-152.08032612 107.30289884 -148.85639712 106.22261075 -145.6328125 105.1171875 C-143.81777222 104.50858887 -143.81777222 104.50858887 -141.96606445 103.88769531 C-138.69429671 102.79031321 -135.42706543 101.67997349 -132.16056061 100.56703949 C-128.73704647 99.40313065 -125.3094335 98.25141442 -121.88232422 97.09814453 C-113.91617972 94.41450426 -105.95713098 91.71023266 -98 89 C-96.9692334 88.64905273 -95.9384668 88.29810547 -94.87646484 87.93652344 C-87.38703388 85.3855607 -79.90034503 82.82663205 -72.41601562 80.26074219 C-58.74120089 75.57565176 -45.04454028 70.95622173 -31.33685303 66.3682251 C-28.87526361 65.54375556 -26.41419739 64.71772216 -23.95367432 63.89007568 C-20.52527393 62.73737291 -17.09496488 61.59054334 -13.6640625 60.4453125 C-12.62866333 60.09607727 -11.59326416 59.74684204 -10.52648926 59.38702393 C-9.57624878 59.07126404 -8.6260083 58.75550415 -7.64697266 58.43017578 C-6.40350571 58.01386398 -6.40350571 58.01386398 -5.13491821 57.58914185 C-3 57 -3 57 0 57 C0 69.54 0 82.08 0 95 C-2.98933594 95.99257812 -5.97867188 96.98515625 -9.05859375 98.0078125 C-29.10733232 104.67085257 -49.14973507 111.34724539 -69.12286377 118.23413086 C-81.22496719 122.4042465 -93.36569861 126.45013214 -105.52555275 130.44802284 C-108.09385597 131.29300361 -110.66161657 132.13961134 -113.22917175 132.98686218 C-114.08204175 133.26829354 -114.93491175 133.5497249 -115.81362629 133.83968449 C-117.5454383 134.41122561 -119.27722367 134.98284746 -121.00898266 135.55454922 C-126.18436553 137.26196924 -131.36321809 138.95833312 -136.54467201 140.64723301 C-139.80636817 141.71315643 -143.06470512 142.78907487 -146.32226562 143.86756325 C-147.85855581 144.37381236 -149.39625572 144.87580523 -150.93539429 145.37332726 C-153.06468263 146.06220402 -155.18854093 146.76584305 -157.31176758 147.47314453 C-158.51158768 147.86615753 -159.71140778 148.25917053 -160.94758606 148.66409302 C-164.12301489 150.05383819 -165.85853962 151.29414464 -168 154 C-168.45319325 157.17235276 -168.52990283 159.06487736 -166.9375 161.875 C-163.49526206 163.87371881 -159.7150274 163.41599919 -155.92105103 162.49572754 C-153.57818864 161.76368333 -151.26863501 160.9661068 -148.95703125 160.140625 C-148.07569016 159.83614441 -147.19434906 159.53166382 -146.28630066 159.21795654 C-143.45807699 158.23871461 -140.63519728 157.24504632 -137.8125 156.25 C-134.17452185 154.98049893 -130.53453457 153.71680589 -126.89453125 152.453125 C-125.9196022 152.11371887 -124.94467316 151.77431274 -123.94020081 151.42462158 C-111.0942265 146.96669931 -98.18106449 142.70907909 -85.27743149 138.42179871 C-77.07000128 135.6935197 -68.86990416 132.94347649 -60.66989708 130.19298553 C-55.73616911 128.53879975 -50.80132249 126.88795454 -45.86650372 125.23702621 C-41.67430629 123.83430668 -37.48272321 122.42979481 -33.29223633 121.02197266 C-29.12829078 119.62316835 -24.96291575 118.22870287 -20.79649544 116.8372879 C-19.23263926 116.31416326 -17.66930955 115.78946189 -16.10653496 115.26311493 C-13.95707233 114.53941541 -11.80582693 113.82128415 -9.65405273 113.10449219 C-8.436931 112.69656433 -7.21980927 112.28863647 -5.96580505 111.86834717 C-3 111 -3 111 0 111 C0 123.54 0 136.08 0 149 C-4.48400391 150.48886719 -4.48400391 150.48886719 -9.05859375 152.0078125 C-29.10733232 158.67085257 -49.14973507 165.34724539 -69.12286377 172.23413086 C-81.22496719 176.4042465 -93.36569861 180.45013214 -105.52555275 184.44802284 C-108.09385597 185.29300361 -110.66161657 186.13961134 -113.22917175 186.98686218 C-114.08204175 187.26829354 -114.93491175 187.5497249 -115.81362629 187.83968449 C-117.5454383 188.41122561 -119.27722367 188.98284746 -121.00898266 189.55454922 C-126.18436553 191.26196924 -131.36321809 192.95833312 -136.54467201 194.64723301 C-139.80636817 195.71315643 -143.06470512 196.78907487 -146.32226562 197.86756325 C-147.85855581 198.37381236 -149.39625572 198.87580523 -150.93539429 199.37332726 C-153.06468263 200.06220402 -155.18854093 200.76584305 -157.31176758 201.47314453 C-158.51158768 201.86615753 -159.71140778 202.25917053 -160.94758606 202.66409302 C-164.12301489 204.05383819 -165.85853962 205.29414464 -168 208 C-168.45319325 211.17235276 -168.52990283 213.06487736 -166.9375 215.875 C-163.51468599 217.86244039 -159.73995703 217.40693978 -155.95898819 216.52264977 C-153.65641028 215.82508671 -151.38626668 215.0623264 -149.11376953 214.2722168 C-148.24743361 213.98053147 -147.3810977 213.68884615 -146.48850918 213.38832188 C-143.6164579 212.41858864 -140.74975901 211.43393119 -137.8828125 210.44921875 C-135.84903325 209.75935859 -133.81492267 209.07047455 -131.78050232 208.38250732 C-127.4622799 206.920119 -123.14631965 205.4513072 -118.83206177 203.9772644 C-112.12857628 201.68704613 -105.42016008 199.41154232 -98.71069336 197.13891602 C-90.94639566 194.50809233 -83.18303482 191.87455083 -75.42125607 189.23630428 C-60.01290336 183.99913678 -44.59391231 178.79462895 -29.15789795 173.63955688 C-25.62419754 172.45812747 -22.09257061 171.27064606 -18.56103516 170.08276367 C-16.47961426 169.38684183 -14.39807985 168.69125934 -12.31640625 167.99609375 C-11.39621201 167.68524841 -10.47601776 167.37440308 -9.52793884 167.05413818 C-8.69960037 166.77902405 -7.8712619 166.50390991 -7.01782227 166.22045898 C-6.3074733 165.98246078 -5.59712433 165.74446259 -4.86524963 165.49925232 C-3 165 -3 165 0 165 C0 177.54 0 190.08 0 203 C-3.42246094 204.13695312 -6.84492188 205.27390625 -10.37109375 206.4453125 C-43.16135611 217.34324955 -43.16135611 217.34324955 -75.86993408 228.4831543 C-87.33642479 232.43537464 -98.83724873 236.27530777 -110.36006355 240.05952644 C-112.73244851 240.83921061 -115.10429426 241.6205115 -117.47593689 242.40245056 C-118.26229051 242.66170979 -119.04864412 242.92096903 -119.85882664 243.1880846 C-121.45349956 243.71391505 -123.04814659 244.23982404 -124.64276791 244.76581097 C-129.390321 246.33066519 -134.14132407 247.88445864 -138.89497948 249.43066883 C-141.87785274 250.40365844 -144.85736771 251.38663278 -147.83611298 252.37217903 C-149.23811122 252.83366871 -150.64151753 253.29090475 -152.04636383 253.74365044 C-153.98872141 254.37020508 -155.92578276 255.01310729 -157.86254883 255.65673828 C-158.95577957 256.0142215 -160.04901031 256.37170471 -161.17536926 256.74002075 C-164.22234705 258.09918205 -165.92237484 259.40293464 -168 262 C-168.35457365 265.47482175 -168.1054086 267.68377419 -167 271 C-159.06482502 271.52737881 -152.92495865 269.67846439 -145.48046875 267.046875 C-143.64475997 266.41711271 -141.8090508 265.78735159 -139.97332382 265.15764236 C-138.03717464 264.49051672 -136.10349978 263.81664871 -134.17044067 263.140625 C-130.13911458 261.73092922 -126.10133866 260.34041398 -122.06225586 258.953125 C-117.37636949 257.34255948 -112.69175572 255.72842344 -108.00916004 254.10831451 C-99.0477071 251.00831365 -90.0649853 247.97835797 -81.0625 245 C-78.3461579 244.09954952 -75.63009213 243.19826747 -72.9140625 242.296875 C-72.19637695 242.05888184 -71.47869141 241.82088867 -70.73925781 241.57568359 C-64.3927007 239.46859469 -58.05275095 237.34194372 -51.71333313 235.21350098 C-46.87439564 233.58892191 -42.03438472 231.96755097 -37.19417095 230.34677887 C-33.73023352 229.18663657 -30.26686253 228.0248579 -26.80471802 226.859375 C-22.92220905 225.55243738 -19.03737067 224.25255858 -15.15234375 222.953125 C-13.96977997 222.55377747 -12.78721619 222.15442993 -11.56881714 221.74298096 C-9.93941696 221.19973175 -9.93941696 221.19973175 -8.27709961 220.64550781 C-6.85112709 220.16685272 -6.85112709 220.16685272 -5.39634705 219.67852783 C-3 219 -3 219 0 219 C0 231.54 0 244.08 0 257 C-3.85558594 258.28132813 -7.71117187 259.56265625 -11.68359375 260.8828125 C-46.52802603 272.46236921 -46.52802603 272.46236921 -81.32669067 284.17840576 C-83.05783726 284.7646212 -84.78966407 285.34883196 -86.52218628 285.93096924 C-88.90087976 286.73084276 -91.27692265 287.53812517 -93.65234375 288.34765625 C-94.33292847 288.57492905 -95.01351318 288.80220184 -95.71472168 289.03636169 C-99.43439419 290.31511078 -102.81948741 291.66187552 -106 294 C-107.24838381 297.40528996 -107.24838381 297.40528996 -107 301 C-105.66666667 303.66666667 -105.66666667 303.66666667 -103 305 C-97.37594446 304.58579926 -92.33327194 302.95501369 -87.03881836 301.1484375 C-86.16961258 300.85729065 -85.3004068 300.5661438 -84.40486145 300.26617432 C-82.52755145 299.63646197 -80.65117494 299.00396115 -78.77564812 298.36895752 C-75.8054266 297.36334759 -72.83281961 296.36509859 -69.85951233 295.36865234 C-63.54989635 293.25251409 -57.24364295 291.12646079 -50.9375 289 C-43.6243612 286.53547459 -36.3098769 284.07502694 -28.99307442 281.62139893 C-26.06810708 280.63869529 -23.14509274 279.65033555 -20.22215271 278.66162109 C-18.42544737 278.05802054 -16.62866302 277.4546551 -14.83178711 276.8515625 C-14.02278961 276.57620667 -13.21379211 276.30085083 -12.38027954 276.01715088 C-11.62487381 275.76479675 -10.86946808 275.51244263 -10.09117126 275.25244141 C-9.4421028 275.0334317 -8.79303434 274.814422 -8.12429714 274.58877563 C-5.46514793 273.85175903 -2.72185176 273.45364196 0 273 C0 330.42 0 387.84 0 447 C-21.45 447 -42.9 447 -65 447 C-65.03867187 438.11707031 -65.03867187 438.11707031 -65.078125 429.0546875 C-65.10329629 425.29943605 -65.1296313 421.54426492 -65.16015625 417.7890625 C-65.20847906 411.83072622 -65.25252824 405.87257586 -65.27099609 399.9140625 C-65.28615797 395.10926376 -65.32059529 390.30495192 -65.36830902 385.50037003 C-65.38312764 383.66883708 -65.39104129 381.83723463 -65.39188385 380.00564194 C-65.39425384 377.43666641 -65.42133491 374.86903611 -65.45410156 372.30029297 C-65.4490712 371.54575333 -65.44404083 370.79121368 -65.43885803 370.0138092 C-65.54010527 364.8715268 -66.78921715 361.97868715 -70 358 C-73.55279502 354.62484473 -76.47312971 353.68162182 -81.25 353.4375 C-88.96289801 353.72071535 -96.03345273 355.98674194 -103.36572266 358.21289062 C-107.15075905 359.34384126 -110.95671453 360.39507298 -114.76367188 361.44946289 C-117.92194511 362.32552189 -121.07631239 363.21471163 -124.23046875 364.10546875 C-129.01629429 365.45335965 -133.811682 366.76026407 -138.61328125 368.05078125 C-141.1380768 368.74198309 -143.66281758 369.43338504 -146.1875 370.125 C-147.37520996 370.43735596 -148.56291992 370.74971191 -149.78662109 371.0715332 C-157.27187775 373.14416564 -162.53353496 374.79390788 -166.62214661 381.76626587 C-168.10198312 385.23934788 -168.39405069 387.61696808 -168.43237305 391.37255859 C-168.45216721 392.61339203 -168.47196136 393.85422546 -168.49235535 395.13265991 C-168.49912347 396.47125089 -168.50557053 397.80984353 -168.51171875 399.1484375 C-168.52858002 400.5299335 -168.5467322 401.91141429 -168.56611633 403.2928772 C-168.61346597 406.9128138 -168.64337199 410.53268872 -168.66955566 414.15283203 C-168.6994376 417.85331311 -168.74578201 421.55358623 -168.79101562 425.25390625 C-168.878423 432.50261998 -168.9384945 439.75083509 -169 447 C-182.2 447 -195.4 447 -209 447 C-209.11301069 400.12778048 -209.2025366 353.25559362 -209.25532665 306.3832649 C-209.26158025 300.85072455 -209.26805185 295.31818447 -209.2746582 289.78564453 C-209.27662553 288.13348698 -209.27662553 288.13348698 -209.2786326 286.44795251 C-209.30039464 268.60893453 -209.33982059 250.76999703 -209.38576398 232.93102682 C-209.43250635 214.62931237 -209.46029071 196.3276401 -209.47044247 178.02586842 C-209.47730622 166.73085112 -209.49899192 155.43606133 -209.53958233 144.14111406 C-209.56599327 136.39783673 -209.57400471 128.65467717 -209.56750689 120.91135806 C-209.56430144 116.44247286 -209.56924696 111.97398546 -209.59602737 107.50517082 C-209.62037376 103.41263892 -209.62157891 99.320772 -209.60449447 95.22820938 C-209.60238325 93.7489248 -209.6087146 92.2695986 -209.62441591 90.79039586 C-209.70537298 82.69159282 -209.71812231 76.17129723 -204 70 C-199.45641981 65.87427427 -193.52009617 63.84244543 -187.75610352 61.99243164 C-186.97223267 61.73133606 -186.18836182 61.47024048 -185.3807373 61.20123291 C-182.79995774 60.34428096 -180.21455603 59.50228705 -177.62890625 58.66015625 C-175.78767538 58.05163382 -173.9467752 57.44211005 -172.10618591 56.83164978 C-167.24399509 55.22169925 -162.37784813 53.62406627 -157.51062012 52.02941895 C-149.87162506 49.52399557 -142.23925195 46.9983996 -134.60560036 44.47675323 C-131.73937748 43.53035902 -128.87270934 42.58532192 -126.00602722 41.64031982 C-111.56251785 36.87415071 -97.16250965 31.98747772 -82.77502441 27.05516052 C-67.48025524 21.81247319 -52.15746549 16.65656364 -36.81860352 11.54443359 C-33.16334541 10.32604943 -29.50952816 9.10339594 -25.85595798 7.87996101 C-22.98374999 6.91887975 -20.11065404 5.96047625 -17.23728752 5.00286484 C-15.8849358 4.55168967 -14.53290534 4.09955028 -13.18121529 3.64639664 C-11.33342402 3.0272281 -9.48425276 2.41218243 -7.63500977 1.79736328 C-6.59063248 1.44876251 -5.54625519 1.10016174 -4.4702301 0.74099731 C-2 0 -2 0 0 0 Z " fill="#C6EDFC" transform="translate(284,39)"/>
<path d="M0 0 C22.171875 -0.12375 44.34375 -0.2475 67.1875 -0.375 C74.1899292 -0.42962402 81.1923584 -0.48424805 88.40698242 -0.54052734 C96.95373535 -0.56762695 96.95373535 -0.56762695 100.95405579 -0.57266235 C103.74995959 -0.57825577 106.54518084 -0.60075109 109.34089661 -0.63345337 C112.90775762 -0.67462299 116.47362684 -0.68694559 120.04070342 -0.67843366 C121.96653111 -0.68105271 123.89224921 -0.71322963 125.81779003 -0.74657249 C134.00553496 -0.6872333 134.00553496 -0.6872333 138.2636261 2.25535583 C141.27619686 7.11164705 140.74540063 13.08193988 140.7421875 18.59545898 C140.76058685 19.86280884 140.77898621 21.13015869 140.79794312 22.43591309 C140.84623568 25.9008891 140.86220603 29.36527382 140.86921692 32.83055377 C140.87500495 34.99794683 140.8876614 37.16518935 140.90270996 39.3325367 C140.9549003 46.90089582 140.98025974 54.46881968 140.98144531 62.03735352 C140.98327958 69.08194547 141.04485988 76.12431843 141.13408089 83.16829628 C141.20808774 89.22631929 141.23954397 95.28361328 141.23832512 101.34208542 C141.23835343 104.95644895 141.25550034 108.56871222 141.31585693 112.18261528 C141.38152801 116.21501603 141.35875085 120.24232736 141.328125 124.27514648 C141.37566422 126.0606768 141.37566422 126.0606768 141.42416382 127.88227844 C141.35568299 131.26295983 141.18747579 133.83029325 140 137 C136.66947333 140.10646569 133.07084804 142.01757577 129 144 C118.87647316 151.00859551 114.26341978 162.57803079 111 174 C110.67 179.28 110.34 184.56 110 190 C73.7 190 37.4 190 0 190 C0 127.3 0 64.6 0 0 Z " fill="#F2F9FC" transform="translate(299,249)"/>
<path d="M0 0 C3.37703639 1.68851819 4.89006947 2.65425947 7.390625 5.23046875 C8.33228516 6.18856445 8.33228516 6.18856445 9.29296875 7.16601562 C10.26169922 8.16665039 10.26169922 8.16665039 11.25 9.1875 C14.99056136 13.03132839 18.71802057 16.81338151 22.796875 20.30078125 C28.66288337 25.35111473 34.00609935 30.94908241 39.43652344 36.45703125 C44.58513986 41.67242154 49.73812335 46.8147622 55.34985352 51.53808594 C59.17332467 54.92541324 62.76520284 58.56849209 63.13028526 63.90408993 C63.13284136 64.62618932 63.13539745 65.34828871 63.13803101 66.0922699 C63.14348434 66.9236145 63.14893768 67.75495911 63.15455627 68.61149597 C63.1555986 69.52014908 63.15664093 70.42880219 63.15771484 71.36499023 C63.16279556 72.32460663 63.16787628 73.28422302 63.17311096 74.2729187 C63.18381704 76.35837832 63.19243629 78.44384945 63.19923019 80.52932549 C63.21100753 83.82821053 63.23045651 87.12696399 63.25234985 90.42579651 C63.31401217 99.80571126 63.36806005 109.18561214 63.40136719 118.56567383 C63.42228242 124.30100439 63.45755863 130.03609451 63.50212479 135.77128792 C63.51630818 137.95895627 63.52501248 140.14666716 63.52817917 142.3343792 C63.53307385 145.39171489 63.55619418 148.44840929 63.58349609 151.50561523 C63.58048996 152.41224411 63.57748383 153.31887299 63.5743866 154.25297546 C63.62168961 157.81004194 63.65954672 160.32474011 65.27603149 163.53089905 C67.15680185 165.35415194 67.15680185 165.35415194 71 166 C71 172.93 71 179.86 71 187 C47.57 187 24.14 187 0 187 C0 125.29 0 63.58 0 0 Z " fill="#5FB6FF" transform="translate(298,47)"/>
<path d="M0 0 C1.15443855 -0.01007584 1.15443855 -0.01007584 2.3321991 -0.02035522 C4.87411983 -0.03933777 7.41577649 -0.04325972 9.95776367 -0.04541016 C11.72889819 -0.05183862 13.50003165 -0.05856702 15.27116394 -0.06558228 C18.98418641 -0.07755618 22.69711584 -0.08126305 26.41015625 -0.08007812 C31.15816708 -0.07987509 35.90557829 -0.10716026 40.65344715 -0.14162254 C44.31242082 -0.16390892 47.97125068 -0.16791511 51.63028526 -0.16685867 C53.38011425 -0.16921267 55.12994731 -0.17802483 56.87970924 -0.19352341 C59.3329878 -0.2132162 61.78498004 -0.20733294 64.23828125 -0.1953125 C64.95488922 -0.20655151 65.67149719 -0.21779053 66.40982056 -0.22937012 C71.87540216 -0.16164135 74.90800791 1.28381729 79.31323242 4.29052734 C83.38451429 9.61899441 82.79337427 15.87099083 82.75073242 22.29052734 C82.77071289 23.35787109 82.79069336 24.42521484 82.8112793 25.52490234 C82.80752268 31.56554823 82.63893616 35.67644336 78.31323242 40.29052734 C74.09335185 43.50484334 70.33568589 43.72535912 65.20581055 43.69458008 C64.00244301 43.70487495 64.00244301 43.70487495 62.77476501 43.71537781 C60.13115588 43.73363279 57.48814087 43.72981068 54.84448242 43.72412109 C53.00272428 43.72868314 51.16096784 43.73398878 49.31921387 43.74000549 C45.46249467 43.74893373 41.60598259 43.74651628 37.74926758 43.73657227 C32.80937476 43.72507586 27.87019605 43.74530569 22.93039703 43.7744894 C19.12822945 43.79284232 15.32623335 43.79256089 11.52403259 43.78685188 C9.70278419 43.78669859 7.88152423 43.79274915 6.06031799 43.80514336 C3.5133084 43.82003673 0.96762271 43.80938973 -1.5793457 43.79223633 C-2.70476524 43.80673828 -2.70476524 43.80673828 -3.85292053 43.8215332 C-8.74578633 43.75259972 -11.26174286 42.78714562 -14.68676758 39.29052734 C-17.71120708 33.71412752 -17.09365129 27.53411657 -17.12426758 21.35302734 C-17.15713867 20.18578125 -17.19000977 19.01853516 -17.22387695 17.81591797 C-17.28396289 8.22947993 -17.28396289 8.22947993 -14.40942383 4.59912109 C-9.63844658 0.55371571 -6.17729179 -0.00774744 0 0 Z " fill="#040404" transform="translate(335.686767578125,323.70947265625)"/>
<path d="M0 0 C1.15443855 -0.01007584 1.15443855 -0.01007584 2.3321991 -0.02035522 C4.87411983 -0.03933777 7.41577649 -0.04325972 9.95776367 -0.04541016 C11.72889819 -0.05183862 13.50003165 -0.05856702 15.27116394 -0.06558228 C18.98418641 -0.07755618 22.69711584 -0.08126305 26.41015625 -0.08007812 C31.15816708 -0.07987509 35.90557829 -0.10716026 40.65344715 -0.14162254 C44.31242082 -0.16390892 47.97125068 -0.16791511 51.63028526 -0.16685867 C53.38011425 -0.16921267 55.12994731 -0.17802483 56.87970924 -0.19352341 C59.3329878 -0.2132162 61.78498004 -0.20733294 64.23828125 -0.1953125 C64.95488922 -0.20655151 65.67149719 -0.21779053 66.40982056 -0.22937012 C71.87540216 -0.16164135 74.90800791 1.28381729 79.31323242 4.29052734 C83.38451429 9.61899441 82.79337427 15.87099083 82.75073242 22.29052734 C82.77071289 23.35787109 82.79069336 24.42521484 82.8112793 25.52490234 C82.80752268 31.56554823 82.63893616 35.67644336 78.31323242 40.29052734 C74.09531985 43.50138587 70.33330902 43.7304773 65.20581055 43.71044922 C64.40356552 43.71891876 63.6013205 43.72738831 62.77476501 43.7361145 C60.13117488 43.75945418 57.48816765 43.76050754 54.84448242 43.75927734 C53.00272388 43.76637983 51.16096754 43.77407896 49.31921387 43.78234863 C45.46250249 43.79578578 41.6059958 43.79736524 37.74926758 43.79150391 C32.80925373 43.78560295 27.87022103 43.81621901 22.93039703 43.85662079 C19.12822181 43.88247822 15.32628362 43.8853771 11.52403259 43.88172913 C9.70276927 43.88342165 7.88149515 43.89307689 6.06031799 43.91087341 C3.51309581 43.93302954 0.9678701 43.92338044 -1.5793457 43.90576172 C-2.3296254 43.91902496 -3.07990509 43.93228821 -3.85292053 43.94595337 C-7.83045722 43.88208232 -9.50401268 43.4414738 -12.61289978 40.87368774 C-17.59845726 34.66379594 -17.08608058 29.18021688 -17.12426758 21.41552734 C-17.15713867 20.24376953 -17.19000977 19.07201172 -17.22387695 17.86474609 C-17.28405952 8.2245939 -17.28405952 8.2245939 -14.40942383 4.59521484 C-9.63682314 0.55528026 -6.17562489 -0.00774535 0 0 Z " fill="#030404" transform="translate(335.686767578125,266.70947265625)"/>
<path d="M0 0 C36.63 0 73.26 0 111 0 C111 10.56 111 21.12 111 32 C74.37 32 37.74 32 0 32 C0 21.44 0 10.88 0 0 Z " fill="#B2C0CA" transform="translate(298,454)"/>
<path d="M0 0 C3.37703639 1.68851819 4.89006947 2.65425947 7.390625 5.23046875 C8.33228516 6.18856445 8.33228516 6.18856445 9.29296875 7.16601562 C10.26169922 8.16665039 10.26169922 8.16665039 11.25 9.1875 C14.99056136 13.03132839 18.71802057 16.81338151 22.796875 20.30078125 C28.66288337 25.35111473 34.00609935 30.94908241 39.43652344 36.45703125 C44.58513986 41.67242154 49.73812335 46.8147622 55.34985352 51.53808594 C59.17332467 54.92541324 62.76520284 58.56849209 63.13028526 63.90408993 C63.13284136 64.62618932 63.13539745 65.34828871 63.13803101 66.0922699 C63.14348434 66.9236145 63.14893768 67.75495911 63.15455627 68.61149597 C63.1555986 69.52014908 63.15664093 70.42880219 63.15771484 71.36499023 C63.16279556 72.32460663 63.16787628 73.28422302 63.17311096 74.2729187 C63.18381704 76.35837832 63.19243629 78.44384945 63.19923019 80.52932549 C63.21100753 83.82821053 63.23045651 87.12696399 63.25234985 90.42579651 C63.31401217 99.80571126 63.36806005 109.18561214 63.40136719 118.56567383 C63.42228242 124.30100439 63.45755863 130.03609451 63.50212479 135.77128792 C63.51630818 137.95895627 63.52501248 140.14666716 63.52817917 142.3343792 C63.53307385 145.39171489 63.55619418 148.44840929 63.58349609 151.50561523 C63.58048996 152.41224411 63.57748383 153.31887299 63.5743866 154.25297546 C63.62168961 157.81004194 63.65954672 160.32474011 65.27603149 163.53089905 C67.15680185 165.35415194 67.15680185 165.35415194 71 166 C71 172.93 71 179.86 71 187 C47.57 187 24.14 187 0 187 C0 125.29 0 63.58 0 0 Z M1 11 C1 68.75 1 126.5 1 186 C16.84 186 32.68 186 49 186 C49.06779758 169.97056702 49.12302858 153.94125696 49.15543652 137.91172028 C49.17088601 130.46843827 49.19193866 123.02525188 49.22631836 115.58203125 C49.25627966 109.09228496 49.27558894 102.60260793 49.28226548 96.1127944 C49.2861664 92.6784873 49.29529362 89.24437831 49.31719017 85.81013489 C49.33899146 81.97030935 49.3419657 78.13089317 49.34057617 74.29101562 C49.351362 73.16028625 49.36214783 72.02955688 49.3732605 70.86456299 C49.32615152 58.82054025 45.46799458 52.40935196 37 44 C34.11207222 41.24512764 31.18457676 38.53372144 28.24243164 35.83691406 C21.67128438 29.78580914 15.40779672 23.4380335 9.17041016 17.04516602 C8.39616699 16.25940186 7.62192383 15.4736377 6.82421875 14.6640625 C6.13416748 13.95717285 5.44411621 13.2502832 4.7331543 12.52197266 C3.13395959 10.7800517 3.13395959 10.7800517 1 11 Z " fill="#269DF0" transform="translate(298,47)"/>
<path d="M0 0 C6.80419823 5.16942333 10.2921328 12.77092964 12.9296875 20.68359375 C12.9296875 25.63359375 12.9296875 30.58359375 12.9296875 35.68359375 C-11.1603125 35.68359375 -35.2503125 35.68359375 -60.0703125 35.68359375 C-60.0703125 22.31662895 -59.3406464 13.32714807 -50.16796875 3.68359375 C-36.21774584 -9.65370197 -16.10785871 -10.24216677 0 0 Z " fill="#BAEB6B" transform="translate(484.0703125,403.31640625)"/>
<path d="M0 0 C1.72597775 -0.16322732 3.45648337 -0.27895945 5.1875 -0.375 C6.15042969 -0.44460937 7.11335937 -0.51421875 8.10546875 -0.5859375 C11.44248981 0.08957284 12.85277696 1.25340766 14.93971252 3.91230965 C17.23890808 8.43939167 16.74508215 13.62842141 16.7421875 18.59545898 C16.76058685 19.86280884 16.77898621 21.13015869 16.79794312 22.43591309 C16.84623568 25.9008891 16.86220603 29.36527382 16.86921692 32.83055377 C16.87500495 34.99794683 16.8876614 37.16518935 16.90270996 39.3325367 C16.9549003 46.90089582 16.98025974 54.46881968 16.98144531 62.03735352 C16.98327958 69.08194547 17.04485988 76.12431843 17.13408089 83.16829628 C17.20808774 89.22631929 17.23954397 95.28361328 17.23832512 101.34208542 C17.23835343 104.95644895 17.25550034 108.56871222 17.31585693 112.18261528 C17.38152801 116.21501603 17.35875085 120.24232736 17.328125 124.27514648 C17.37566422 126.0606768 17.37566422 126.0606768 17.42416382 127.88227844 C17.35568299 131.26295983 17.18747579 133.83029325 16 137 C12.66947333 140.10646569 9.07084804 142.01757577 5 144 C-5.12352684 151.00859551 -9.73658022 162.57803079 -13 174 C-13.33 179.28 -13.66 184.56 -14 190 C-50.3 190 -86.6 190 -124 190 C-124 189.67 -124 189.34 -124 189 C-91.33 189 -58.66 189 -25 189 C-25 184.05 -25 179.1 -25 174 C-21.98209388 161.68694304 -15.73036646 152.68447796 -5.07421875 145.74609375 C-0.4527439 143 -0.4527439 143 2 143 C1.89275515 125.09334787 1.77999269 107.1867394 1.66066074 89.28016376 C1.6053816 80.96584276 1.55190835 72.65151745 1.50268555 64.3371582 C1.45977865 57.09040931 1.41348431 49.84369134 1.36312145 42.59699029 C1.3365729 38.75989938 1.31172122 34.9228144 1.29092598 31.08568764 C1.27129573 27.47340059 1.24713311 23.8611721 1.21950912 20.24893761 C1.2057237 18.29256548 1.1967307 16.33616142 1.18788147 14.37976074 C1.17809265 13.21173416 1.16830383 12.04370758 1.15821838 10.84028625 C1.15176583 9.82723577 1.14531328 8.81418528 1.1386652 7.77043629 C1.00419525 5.08381823 0.60103284 2.61816904 0 0 Z " fill="#DAF0FA" transform="translate(423,249)"/>
<path d="M0 0 C0 57.42 0 114.84 0 174 C-21.45 174 -42.9 174 -65 174 C-65 173.67 -65 173.34 -65 173 C-48.17 173 -31.34 173 -14 173 C-14.33 117.23 -14.66 61.46 -15 4 C-4 0 -4 0 0 0 Z " fill="#92DCF0" transform="translate(284,312)"/>
<path d="M0 0 C24.09 0 48.18 0 73 0 C73 9.9 73 19.8 73 30 C71 32 71 32 68.0640564 32.24050903 C66.17875717 32.2338472 66.17875717 32.2338472 64.25537109 32.22705078 C63.21617775 32.22748886 63.21617775 32.22748886 62.1559906 32.22793579 C59.86167966 32.22654031 57.56769184 32.21096919 55.2734375 32.1953125 C53.68446022 32.19158314 52.09548064 32.1887358 50.50650024 32.18673706 C46.32085846 32.17909453 42.1353551 32.15944081 37.94976807 32.1373291 C32.9296047 32.11329039 27.9093951 32.10409263 22.88919067 32.09242249 C15.25936412 32.07301668 7.6298414 32.03469862 0 32 C0 21.44 0 10.88 0 0 Z " fill="#B5C3CE" transform="translate(424,454)"/>
<path d="M0 0 C0 26.07 0 52.14 0 79 C-9.9 79 -19.8 79 -30 79 C-30 55.24 -30 31.48 -30 7 C-6.2 0 -6.2 0 0 0 Z " fill="#279EF1" transform="translate(204,407)"/>
<path d="M0 0 C2.28078551 0.00850767 4.55906131 -0.02026973 6.83959961 -0.05200195 C8.30118741 -0.0536144 9.7627796 -0.0530356 11.22436523 -0.05004883 C13.20327759 -0.05282837 13.20327759 -0.05282837 15.22216797 -0.05566406 C19.44251613 0.52746076 21.57239004 1.77433608 24.85327148 4.44604492 C28.20583338 9.47488777 27.30562189 15.28749542 27.35327148 21.19604492 C27.39452148 22.45932617 27.43577148 23.72260742 27.47827148 25.02416992 C27.56600963 35.46500916 27.56600963 35.46500916 24.00952148 39.77416992 C18.72773715 44.9737347 11.25748464 43.77564794 4.33959961 43.85107422 C2.85563843 43.87262082 1.37180322 43.90668551 -0.11157227 43.95361328 C-14.01795053 44.38896224 -14.01795053 44.38896224 -18.59985352 40.60620117 C-23.57396348 35.36218459 -22.36751893 28.32576086 -22.39672852 21.57104492 C-22.41735352 20.38639648 -22.43797852 19.20174805 -22.45922852 17.98120117 C-22.46438477 16.83780273 -22.46954102 15.6944043 -22.47485352 14.51635742 C-22.48419922 13.47237793 -22.49354492 12.42839844 -22.50317383 11.3527832 C-21.95766284 6.90425321 -20.40080001 4.45506955 -16.92773438 1.66064453 C-11.61234237 -0.66084395 -5.71209206 -0.03256329 0 0 Z " fill="#020303" transform="translate(341.146728515625,381.553955078125)"/>
<path d="M0 0 C0 21.78 0 43.56 0 66 C-9.57 66 -19.14 66 -29 66 C-29 46.86 -29 27.72 -29 8 C-23.51520862 5.64937512 -18.5023579 3.86513229 -12.8125 2.3125 C-12.01908203 2.08755859 -11.22566406 1.86261719 -10.40820312 1.63085938 C-9.25674805 1.3127832 -9.25674805 1.3127832 -8.08203125 0.98828125 C-7.39343018 0.79790283 -6.7048291 0.60752441 -5.99536133 0.41137695 C-4 0 -4 0 0 0 Z " fill="#5FB6FE" transform="translate(159,419)"/>
<path d="M0 0 C14.85 0 29.7 0 45 0 C45 10.56 45 21.12 45 32 C38.91257338 32.04584673 32.8257428 32.08569134 26.73828125 32.10986328 C24.66632053 32.11993712 22.59437407 32.13359666 20.52246094 32.15087891 C17.54879236 32.17506664 14.5753113 32.18646908 11.6015625 32.1953125 C10.20618759 32.21079636 10.20618759 32.21079636 8.78262329 32.22659302 C7.92188202 32.22674408 7.06114075 32.22689514 6.17431641 32.22705078 C5.41486725 32.231492 4.65541809 32.23593323 3.87295532 32.24050903 C2 32 2 32 0 30 C-0.22705078 27.01904297 -0.22705078 27.01904297 -0.1953125 23.2421875 C-0.19031738 22.02901855 -0.18532227 20.81584961 -0.18017578 19.56591797 C-0.16196777 18.01791504 -0.14375977 16.46991211 -0.125 14.875 C-0.08375 9.96625 -0.0425 5.0575 0 0 Z " fill="#B5C3CE" transform="translate(15,454)"/>
<path d="M0 0 C0 13.86 0 27.72 0 42 C-14.85 42 -29.7 42 -45 42 C-44.15489918 35.23919344 -43.41551536 31.7505997 -40.5 26.0625 C-40.14470215 25.36592285 -39.7894043 24.6693457 -39.42333984 23.95166016 C-33.10687911 12.11553361 -22.96669238 4.76720252 -10.3984375 0.4453125 C-6.98740992 -0.18800532 -3.46932279 0 0 0 Z " fill="#B9EA6B" transform="translate(60,397)"/>
<path d="M0 0 C0 24.09 0 48.18 0 73 C-4.95 73 -9.9 73 -15 73 C-15 49.57 -15 26.14 -15 2 C-8.88526709 -0.44589316 -6.47373819 -1.29474764 0 0 Z " fill="#5EB6FE" transform="translate(190,412)"/>
<path d="M0 0 C22.44 0 44.88 0 68 0 C68 4.29 68 8.58 68 13 C45.56 13 23.12 13 0 13 C0 8.71 0 4.42 0 0 Z " fill="#C6EDFC" transform="translate(334,339)"/>
<path d="M0 0 C22.44 0 44.88 0 68 0 C68 4.29 68 8.58 68 13 C45.56 13 23.12 13 0 13 C0 8.71 0 4.42 0 0 Z " fill="#C7EEFD" transform="translate(334,282)"/>
<path d="M0 0 C0.74121094 -0.02191406 1.48242188 -0.04382813 2.24609375 -0.06640625 C5.83670566 0.90844791 7.26109697 2.67138011 9.5625 5.5625 C10.23191821 8.43773016 10.14758321 11.20547274 10.05078125 14.14453125 C10.04370651 14.95871017 10.03663177 15.7728891 10.02934265 16.61174011 C10.00145598 19.20044643 9.93873316 21.78695273 9.875 24.375 C9.8499095 26.13473428 9.82709764 27.89450263 9.80664062 29.65429688 C9.75164872 33.95787296 9.66541992 38.2598141 9.5625 42.5625 C7.12677941 43.40137056 4.68916783 44.23376529 2.25 45.0625 C1.55970703 45.30097656 0.86941406 45.53945312 0.15820312 45.78515625 C-2.82681489 46.79458263 -5.26408914 47.5625 -8.4375 47.5625 C-8.53639038 41.51193005 -8.60897918 35.46183065 -8.65722656 29.41064453 C-8.67733969 27.35229295 -8.70463397 25.29399848 -8.73925781 23.23583984 C-8.78778883 20.27687487 -8.81047166 17.31866539 -8.828125 14.359375 C-8.84877014 13.43944763 -8.86941528 12.51952026 -8.89068604 11.57171631 C-8.8929285 5.18412781 -8.8929285 5.18412781 -6.54956055 1.9855957 C-4.1591704 0.37496293 -2.8653758 -0.00496599 0 0 Z " fill="#9289C4" transform="translate(138.4375,26.4375)"/>
<path d="M0 0 C2.9375 2.0625 2.9375 2.0625 5 5 C5.0625 8.625 5.0625 8.625 4 12 C-0.71260997 16.38139834 -7.33861775 17.71300123 -13.3125 19.6875 C-14.52357422 20.10322266 -15.73464844 20.51894531 -16.98242188 20.94726562 C-18.15998047 21.33978516 -19.33753906 21.73230469 -20.55078125 22.13671875 C-21.61981689 22.49467529 -22.68885254 22.85263184 -23.7902832 23.22143555 C-27.33483229 24.08121854 -30.36520433 24.24388553 -34 24 C-36.4375 22.375 -36.4375 22.375 -38 20 C-38.5625 17.0625 -38.5625 17.0625 -38 14 C-34.63385985 10.02419874 -31.73449985 8.16054277 -26.81640625 6.54296875 C-25.05393555 5.95805664 -25.05393555 5.95805664 -23.25585938 5.36132812 C-22.03705078 4.97396484 -20.81824219 4.58660156 -19.5625 4.1875 C-18.34755859 3.78080078 -17.13261719 3.37410156 -15.88085938 2.95507812 C-5.38880838 -0.46561795 -5.38880838 -0.46561795 0 0 Z " fill="#050707" transform="translate(153,341)"/>
<path d="M0 0 C0 13.86 0 27.72 0 42 C-14.85 42 -29.7 42 -45 42 C-44.67 40.68 -44.34 39.36 -44 38 C-44 38.99 -44 39.98 -44 41 C-34.1 41 -24.2 41 -14 41 C-14 28.13 -14 15.26 -14 2 C-8 0 -8 0 0 0 Z " fill="#A0E230" transform="translate(60,397)"/>
<path d="M0 0 C8.76286352 0.5714911 16.87850027 4.73937528 23 11 C30.35737357 21.54085252 31 28.27698611 31 42 C6.91 42 -17.18 42 -42 42 C-42 37.38 -42 32.76 -42 28 C-41.67 28 -41.34 28 -41 28 C-41 32.29 -41 36.58 -41 41 C-21.86 41 -2.72 41 17 41 C15.80585464 23.08781966 12.81882083 12.33239236 0 0 Z " fill="#9EDE32" transform="translate(466,397)"/>
<path d="M0 0 C0 13.53 0 27.06 0 41 C-11 45 -11 45 -14 45 C-14 31.47 -14 17.94 -14 4 C-2 0 -2 0 0 0 Z " fill="#93DDF2" transform="translate(284,39)"/>
<path d="M0 0 C0.33 0 0.66 0 1 0 C1 10.23 1 20.46 1 31 C20.14 31 39.28 31 59 31 C59 20.77 59 10.54 59 0 C63.62 0 68.24 0 73 0 C73.04587844 4.23610959 73.08571186 8.47135957 73.10986328 12.70751953 C73.11992963 14.14895547 73.1335838 15.59037095 73.15087891 17.03173828 C73.17510012 19.10193934 73.18647641 21.17187076 73.1953125 23.2421875 C73.20578613 24.4885498 73.21625977 25.73491211 73.22705078 27.01904297 C73 30 73 30 71 32 C68.0640564 32.24050903 68.0640564 32.24050903 64.25537109 32.22705078 C63.21617775 32.22748886 63.21617775 32.22748886 62.1559906 32.22793579 C59.86167966 32.22654031 57.56769184 32.21096919 55.2734375 32.1953125 C53.68446022 32.19158314 52.09548064 32.1887358 50.50650024 32.18673706 C46.32085846 32.17909453 42.1353551 32.15944081 37.94976807 32.1373291 C32.9296047 32.11329039 27.9093951 32.10409263 22.88919067 32.09242249 C15.25936412 32.07301668 7.6298414 32.03469862 0 32 C0 21.44 0 10.88 0 0 Z " fill="#94A0AD" transform="translate(424,454)"/>
<path d="M0 0 C0 12.54 0 25.08 0 38 C-12 42 -12 42 -14 42 C-14.33 29.46 -14.66 16.92 -15 4 C-3 0 -3 0 0 0 Z " fill="#93DDF2" transform="translate(284,258)"/>
<path d="M0 0 C0 12.54 0 25.08 0 38 C-12 42 -12 42 -14 42 C-14.33 29.46 -14.66 16.92 -15 4 C-3 0 -3 0 0 0 Z " fill="#93DDF2" transform="translate(284,204)"/>
<path d="M0 0 C0 12.54 0 25.08 0 38 C-12 42 -12 42 -14 42 C-14.33 29.46 -14.66 16.92 -15 4 C-3 0 -3 0 0 0 Z " fill="#93DDF2" transform="translate(284,150)"/>
<path d="M0 0 C0 12.54 0 25.08 0 38 C-12 42 -12 42 -14 42 C-14.33 29.46 -14.66 16.92 -15 4 C-3 0 -3 0 0 0 Z " fill="#93DDF2" transform="translate(284,96)"/>
<path d="M0 0 C4.62 0 9.24 0 14 0 C14 10.56 14 21.12 14 32 C-0.19 32 -14.38 32 -29 32 C-29 31.67 -29 31.34 -29 31 C-19.43 31 -9.86 31 0 31 C0 20.77 0 10.54 0 0 Z " fill="#99A5B3" transform="translate(46,454)"/>
<path d="M0 0 C0.91035504 2.73106511 1.12215713 4.29893239 1.11352539 7.10424805 C1.11344986 7.92487228 1.11337433 8.74549652 1.11329651 9.59098816 C1.10813522 10.47232925 1.10297394 11.35367035 1.09765625 12.26171875 C1.0962413 13.16751175 1.09482635 14.07330475 1.09336853 15.00654602 C1.08777001 17.90023091 1.07521781 20.79383849 1.0625 23.6875 C1.05748481 25.64908742 1.05292193 27.61067606 1.04882812 29.57226562 C1.03780107 34.38154021 1.02053747 39.190757 1 44 C-1.64738916 45.4606285 -2.89448334 46 -6 46 C-6.07408977 39.93109825 -6.12857359 33.86245903 -6.16479492 27.79321289 C-6.17989271 25.72806209 -6.20037274 23.6629434 -6.22631836 21.59790039 C-6.26265795 18.63159261 -6.2797163 15.66570829 -6.29296875 12.69921875 C-6.30845261 11.7741301 -6.32393646 10.84904144 -6.33988953 9.8959198 C-6.34022942 8.60492119 -6.34022942 8.60492119 -6.34057617 7.2878418 C-6.34723801 6.53061325 -6.35389984 5.7733847 -6.36076355 4.99320984 C-5.65303947 1.08305148 -3.82851617 0 0 0 Z " fill="#AAA4D4" transform="translate(136,28)"/>
<path d="M0 0 C6.27 0 12.54 0 19 0 C19 4.29 19 8.58 19 13 C12.73 13 6.46 13 0 13 C0 8.71 0 4.42 0 0 Z " fill="#9AE6FC" transform="translate(334,397)"/>
<path d="M0 0 C4.29 0 8.58 0 13 0 C13 4.29 13 8.58 13 13 C8.71 13 4.42 13 0 13 C0 8.71 0 4.42 0 0 Z " fill="#98E4FA" transform="translate(389,339)"/>
<path d="M0 0 C4.29 0 8.58 0 13 0 C13 4.29 13 8.58 13 13 C8.71 13 4.42 13 0 13 C0 8.71 0 4.42 0 0 Z " fill="#99E6FC" transform="translate(389,282)"/>
<path d="M0 0 C1.65 0 3.3 0 5 0 C5 4.29 5 8.58 5 13 C3.35 13 1.7 13 0 13 C0 8.71 0 4.42 0 0 Z " fill="#C8EFFE" transform="translate(334,397)"/>
</svg>
